<svg id="visual" viewBox="0 0 900 450" width="900" height="450" xmlns="http://www.w3.org/2000/svg" xmlns:xlink="http://www.w3.org/1999/xlink" version="1.1"><path d="M0 174L16.7 175.5C33.3 177 66.7 180 100 192.8C133.3 205.7 166.7 228.3 200 229.5C233.3 230.7 266.7 210.3 300 207.7C333.3 205 366.7 220 400 218.7C433.3 217.3 466.7 199.7 500 195.2C533.3 190.7 566.7 199.3 600 201.7C633.3 204 666.7 200 700 208.5C733.3 217 766.7 238 800 240.5C833.3 243 866.7 227 883.3 219L900 211L900 0L883.3 0C866.7 0 833.3 0 800 0C766.7 0 733.3 0 700 0C666.7 0 633.3 0 600 0C566.7 0 533.3 0 500 0C466.7 0 433.3 0 400 0C366.7 0 333.3 0 300 0C266.7 0 233.3 0 200 0C166.7 0 133.3 0 100 0C66.7 0 33.3 0 16.7 0L0 0Z" fill="#ff6f61"></path><path d="M0 141L16.7 142.3C33.3 143.7 66.7 146.3 100 153.7C133.3 161 166.7 173 200 171.2C233.3 169.3 266.7 153.7 300 156.3C333.3 159 366.7 180 400 189.7C433.3 199.3 466.7 197.7 500 195C533.3 192.3 566.7 188.7 600 179.5C633.3 170.3 666.7 155.7 700 157.5C733.3 159.3 766.7 177.7 800 184.5C833.3 191.3 866.7 186.7 883.3 184.3L900 182L900 0L883.3 0C866.7 0 833.3 0 800 0C766.7 0 733.3 0 700 0C666.7 0 633.3 0 600 0C566.7 0 533.3 0 500 0C466.7 0 433.3 0 400 0C366.7 0 333.3 0 300 0C266.7 0 233.3 0 200 0C166.7 0 133.3 0 100 0C66.7 0 33.3 0 16.7 0L0 0Z" fill="#f35c62"></path><path d="M0 134L16.7 133.7C33.3 133.3 66.7 132.7 100 127.3C133.3 122 166.7 112 200 116.5C233.3 121 266.7 140 300 142.5C333.3 145 366.7 131 400 129.8C433.3 128.7 466.7 140.3 500 138.7C533.3 137 566.7 122 600 115.5C633.3 109 666.7 111 700 114.3C733.3 117.7 766.7 122.3 800 125C833.3 127.7 866.7 128.3 883.3 128.7L900 129L900 0L883.3 0C866.7 0 833.3 0 800 0C766.7 0 733.3 0 700 0C666.7 0 633.3 0 600 0C566.7 0 533.3 0 500 0C466.7 0 433.3 0 400 0C366.7 0 333.3 0 300 0C266.7 0 233.3 0 200 0C166.7 0 133.3 0 100 0C66.7 0 33.3 0 16.7 0L0 0Z" fill="#e64964"></path><path d="M0 68L16.7 71.7C33.3 75.3 66.7 82.7 100 83.2C133.3 83.7 166.7 77.3 200 73.5C233.3 69.7 266.7 68.3 300 67.5C333.3 66.7 366.7 66.3 400 74.3C433.3 82.3 466.7 98.7 500 106.8C533.3 115 566.7 115 600 110C633.3 105 666.7 95 700 89.3C733.3 83.7 766.7 82.3 800 83.2C833.3 84 866.7 87 883.3 88.5L900 90L900 0L883.3 0C866.7 0 833.3 0 800 0C766.7 0 733.3 0 700 0C666.7 0 633.3 0 600 0C566.7 0 533.3 0 500 0C466.7 0 433.3 0 400 0C366.7 0 333.3 0 300 0C266.7 0 233.3 0 200 0C166.7 0 133.3 0 100 0C66.7 0 33.3 0 16.7 0L0 0Z" fill="#d73666"></path><path d="M0 55L16.7 56.7C33.3 58.3 66.7 61.7 100 63.2C133.3 64.7 166.7 64.3 200 64.7C233.3 65 266.7 66 300 62.7C333.3 59.3 366.7 51.7 400 50.3C433.3 49 466.7 54 500 52.5C533.3 51 566.7 43 600 37.7C633.3 32.3 666.7 29.7 700 32.7C733.3 35.7 766.7 44.3 800 47.7C833.3 51 866.7 49 883.3 48L900 47L900 0L883.3 0C866.7 0 833.3 0 800 0C766.7 0 733.3 0 700 0C666.7 0 633.3 0 600 0C566.7 0 533.3 0 500 0C466.7 0 433.3 0 400 0C366.7 0 333.3 0 300 0C266.7 0 233.3 0 200 0C166.7 0 133.3 0 100 0C66.7 0 33.3 0 16.7 0L0 0Z" fill="#c62368"></path></svg>